<svg xmlns="http://www.w3.org/2000/svg" xmlns:xlink="http://www.w3.org/1999/xlink" width="16" height="16"><defs><linearGradient id="a"><stop offset="0" stop-color="#313335"/><stop offset="1" stop-color="#272829"/></linearGradient><linearGradient id="b"><stop offset="0" stop-color="#1b1c1d"/><stop offset="1" stop-color="#232425"/></linearGradient><linearGradient xlink:href="#a" id="f" gradientUnits="userSpaceOnUse" x1="662.688" y1="247.781" x2="662.534" y2="262.5"/><linearGradient xlink:href="#b" id="g" x1="660.286" y1="259.038" x2="660.255" y2="248.253" gradientUnits="userSpaceOnUse"/><linearGradient id="c"><stop offset="0" stop-color="#fff" stop-opacity=".153"/><stop offset="1" stop-opacity="0"/></linearGradient><linearGradient y2="2.304" x2="8.949" y1="15.594" x1="8.949" gradientUnits="userSpaceOnUse" id="e" xlink:href="#c"/><linearGradient id="d"><stop offset="0"/><stop offset=".333" stop-opacity=".984"/><stop offset=".667" stop-color="#040506"/><stop offset="1" stop-color="#fff" stop-opacity=".051"/></linearGradient><linearGradient y2="247.11" x2="660.149" y1="261.698" x1="660.149" gradientUnits="userSpaceOnUse" id="h" xlink:href="#d"/></defs><path d="M15 8c0 3.866-3.134 7-7 7s-7-3.134-7-7 3.134-7 7-7 7 3.134 7 7z" transform="translate(-.427 -.427) scale(1.0534)" fill="none" stroke="url(#e)" stroke-width="1.189"/><path transform="matrix(1.442 0 0 -.8912 -945.08 235.308)" d="M665.476 255.067c0 4.028-2.018 7.294-4.508 7.294s-4.508-3.264-4.508-7.292c0-4.028 2.018-7.294 4.508-7.294s4.508 3.266 4.508 7.294z" color="#000" fill="url(#f)" stroke="url(#g)" stroke-width=".882" stroke-linecap="square" stroke-linejoin="round" stroke-dashoffset="100" overflow="visible"/><path d="M665.476 255.067c0 4.028-2.018 7.294-4.508 7.294s-4.508-3.264-4.508-7.292c0-4.028 2.018-7.294 4.508-7.294s4.508 3.266 4.508 7.294z" transform="matrix(1.22 0 0 -.754 -798.45 200.337)" opacity=".13" fill="none" stroke="url(#h)" stroke-width="1.043" stroke-linecap="square" stroke-linejoin="round" stroke-dashoffset="100"/></svg>