<svg xmlns="http://www.w3.org/2000/svg" xmlns:xlink="http://www.w3.org/1999/xlink" width="20" height="20"><defs><linearGradient id="c"><stop offset="0" stop-color="#bababa"/><stop offset="1" stop-color="#d5d5d5"/></linearGradient><linearGradient id="a"><stop offset="0" stop-color="#888"/><stop offset="1" stop-color="#535353"/></linearGradient><linearGradient id="b"><stop offset="0"/><stop offset=".772"/><stop offset="1" stop-opacity="0"/></linearGradient><linearGradient xlink:href="#a" id="e" gradientUnits="userSpaceOnUse" gradientTransform="rotate(-90 117.547 283.854)" x1="118.176" y1="479.898" x2="103.924" y2="479.898"/><radialGradient xlink:href="#b" id="d" cx="312.375" cy="290.25" fx="312.375" fy="290.25" r="7.333" gradientUnits="userSpaceOnUse" gradientTransform="translate(19.57 18.183) scale(.93735)"/><linearGradient xlink:href="#c" id="f" x1="7.487" y1="27.873" x2="7.487" y2="15.974" gradientUnits="userSpaceOnUse" gradientTransform="translate(2)"/></defs><path d="M319.25 290.25a6.875 6.875 0 1 1-13.75 0 6.875 6.875 0 1 1 13.75 0z" transform="translate(-421.645 -390.573) scale(1.38182)" opacity=".3" color="#000" fill="url(#d)" overflow="visible"/><path d="M319.25 290.25a6.875 6.875 0 1 1-13.75 0 6.875 6.875 0 1 1 13.75 0z" transform="translate(-330.773 -306.636) scale(1.091)" color="#000" fill="#f9f9f9" stroke="url(#e)" stroke-width=".917" stroke-linecap="round" stroke-linejoin="round" overflow="visible"/><path d="M11.844 3.094L9.97 9.97 5.85 4.29c-.845 1.214-2.788 4.336-2.788 5.93 0 2.612 3.024 4.72 5 6.42l1.907-6.61 3.943 5.72C14.903 14.48 17 11.514 17 9.78c0-2.588-3.16-5.338-5.156-6.686z" fill="#e6e6e6"/><path d="M13.72 16.03l-3.75 5.94-5.408-4.157c-.846 1.214-1.5 2.813-1.5 4.406 0 2.61 1.15 4.016 3.125 5.717L9.97 22.03l5.467 4.314c.988-1.27 1.563-2.83 1.563-4.563 0-2.587-1.286-4.4-3.28-5.75z" fill="url(#f)" transform="translate(0 -12)"/><path d="M16.5 10a6.5 6.5 0 1 1-13 0 6.5 6.5 0 1 1 13 0z" opacity=".8" color="#000" fill="none" stroke="#fff" stroke-linecap="round" stroke-linejoin="round" overflow="visible"/><path d="M10.41 10a.41.41 0 1 1-.82 0 .41.41 0 1 1 .82 0z" color="#bebebe" fill="#fff" overflow="visible"/></svg>