<svg xmlns="http://www.w3.org/2000/svg" xmlns:xlink="http://www.w3.org/1999/xlink" width="20" height="16"><defs><linearGradient id="a"><stop offset="0"/><stop offset=".659"/><stop offset="1" stop-opacity="0"/></linearGradient><linearGradient id="c"><stop offset="0" stop-color="#bababa"/><stop offset="1" stop-color="#d5d5d5"/></linearGradient><linearGradient id="b"><stop offset="0" stop-color="#a0a0a0"/><stop offset="1" stop-color="#787878"/></linearGradient><radialGradient xlink:href="#a" id="d" gradientUnits="userSpaceOnUse" gradientTransform="translate(19.57 18.183) scale(.93735)" cx="312.375" cy="290.25" fx="312.375" fy="290.25" r="7.333"/><linearGradient xlink:href="#b" id="e" gradientUnits="userSpaceOnUse" gradientTransform="rotate(-90 117.547 283.854)" x1="118.176" y1="479.898" x2="103.924" y2="479.898"/><linearGradient xlink:href="#c" id="f" gradientUnits="userSpaceOnUse" gradientTransform="translate(2)" x1="7.487" y1="27.873" x2="7.487" y2="15.974"/></defs><path transform="translate(-353.49 -329.745) scale(1.16364)" d="M319.25 290.25c0 3.797-3.078 6.875-6.875 6.875s-6.875-3.078-6.875-6.875 3.078-6.875 6.875-6.875 6.875 3.078 6.875 6.875z" opacity=".15" color="#000" fill="url(#d)" overflow="visible"/><path transform="translate(-276.967 -259.062) scale(.91866)" d="M319.25 290.25c0 3.797-3.078 6.875-6.875 6.875s-6.875-3.078-6.875-6.875 3.078-6.875 6.875-6.875 6.875 3.078 6.875 6.875z" color="#000" fill="#ebebeb" stroke="url(#e)" stroke-width=".917" stroke-linecap="round" stroke-linejoin="round" overflow="visible"/><path d="M11.553 1.763l-1.58 5.79L6.507 2.77C5.794 3.793 4.16 6.422 4.16 7.763c0 2.2 2.545 3.976 4.21 5.408l1.605-5.564 3.322 4.816c.832-1.07 2.6-3.566 2.6-5.025 0-2.18-2.663-4.497-4.343-5.632z" fill="#ddd"/><path d="M13.72 16.03l-3.75 5.94-5.408-4.157c-.846 1.214-1.5 2.813-1.5 4.406 0 2.61 1.15 4.016 3.125 5.717L9.97 22.03l5.467 4.314c.988-1.27 1.563-2.83 1.563-4.563 0-2.587-1.286-4.4-3.28-5.75z" opacity=".6" fill="url(#f)" transform="matrix(.842 0 0 .842 1.58 -10.947)"/><path d="M15.474 7.58c0 3.022-2.45 5.473-5.474 5.473-3.023 0-5.474-2.45-5.474-5.474S6.976 2.103 10 2.103c3.023 0 5.474 2.45 5.474 5.474z" opacity=".6" color="#000" fill="none" stroke="#fff" stroke-width=".842" stroke-linecap="round" stroke-linejoin="round" overflow="visible"/><path d="M10.345 7.58c0 .19-.155.344-.345.344-.19 0-.345-.155-.345-.345 0-.19.155-.347.345-.347.19 0 .345.155.345.345z" color="#bebebe" fill="#fff" overflow="visible"/></svg>