#define desk_width 7
#define desk_height 7
static unsigned char desk_bits[] = {
   0x00, 0x1c, 0x1c, 0x3e, 0x08, 0x08, 0x00 };
