/* XPM */
static char * close_inactive_xpm[] = {
"17 20 4 1",
" 	c None",
".	c #D9D9D9",
"+	c #0C0C0C",
"@	c #47494D",
".................",
"+++++++++++++++++",
"+++++++++++++++++",
"+++++++++++++++++",
"+++++++++++++++++",
"+++++++++++++++++",
"+++++++++++++++++",
"+++++++++++++++++",
"++++++@+++@++++++",
"+++++++@+@+++++++",
"++++++++@++++++++",
"+++++++@+@+++++++",
"++++++@+++@++++++",
"+++++++++++++++++",
"+++++++++++++++++",
"+++++++++++++++++",
"+++++++++++++++++",
"+++++++++++++++++",
"+++++++++++++++++",
"+++++++++++++++++"};
