/* XPM */
static char * hide_pressed_xpm[] = {
"17 20 4 1",
" 	c None",
".	c #D9D9D9",
"+	c #0C0C0C",
"@	c #AAC6D1",
".................",
"+++++++++++++++++",
"+++++++++++++++++",
"+++++++++++++++++",
"+++++++++++++++++",
"+++++++++++++++++",
"+++++++++++++++++",
"+++++++++++++++++",
"++++++@+++@++++++",
"+++++++@+@+++++++",
"++++++++@++++++++",
"+++++++++++++++++",
"+++++++++++++++++",
"+++++++++++++++++",
"+++++++++++++++++",
"+++++++++++++++++",
"+++++++++++++++++",
"+++++++++++++++++",
"+++++++++++++++++",
"+++++++++++++++++"};
