<svg xmlns="http://www.w3.org/2000/svg" xmlns:xlink="http://www.w3.org/1999/xlink" width="20" height="16"><defs><radialGradient r="7.333" fy="290.25" fx="312.375" cy="290.25" cx="312.375" gradientTransform="translate(19.57 18.183) scale(.93735)" gradientUnits="userSpaceOnUse" id="d" xlink:href="#a"/><linearGradient id="a"><stop offset="0"/><stop offset=".772"/><stop offset="1" stop-opacity="0"/></linearGradient><linearGradient y2="479.898" x2="103.924" y1="479.898" x1="118.176" gradientTransform="rotate(-90 117.547 283.854)" gradientUnits="userSpaceOnUse" id="e" xlink:href="#b"/><linearGradient id="b"><stop offset="0" stop-color="#464646"/><stop offset="1" stop-color="#1e1e1e"/></linearGradient><linearGradient id="c"><stop offset="0" stop-color="#878787"/><stop offset="1" stop-color="#9c9c9c"/></linearGradient><linearGradient xlink:href="#c" id="f" gradientUnits="userSpaceOnUse" gradientTransform="matrix(.842 0 0 .842 3.263 5.053)" x1="7.487" y1="27.873" x2="7.487" y2="15.974"/></defs><path transform="matrix(1.164 0 0 1.164 -353.49 -329.745)" d="M319.25 290.25a6.875 6.875 0 1 1-13.75 0 6.875 6.875 0 1 1 13.75 0z" opacity=".3" color="#000" fill="url(#d)" overflow="visible"/><path transform="matrix(.92 0 0 .92 -276.967 -259.062)" d="M319.25 290.25a6.875 6.875 0 1 1-13.75 0 6.875 6.875 0 1 1 13.75 0z" color="#000" fill="#cacaca" stroke="url(#e)" stroke-width=".917" stroke-linecap="round" stroke-linejoin="round" overflow="visible"/><path d="M11.553 1.763l-1.58 5.79L6.507 2.77C5.794 3.793 4.16 6.422 4.16 7.763c0 2.2 2.545 3.976 4.21 5.408l1.605-5.563 3.322 4.816c.832-1.07 2.6-3.566 2.6-5.025 0-2.18-2.663-4.497-4.343-5.632z" fill="#bababa"/><path d="M13.132 18.553l-3.158 5-4.553-3.5c-.71 1.022-1.26 2.37-1.26 3.71 0 2.2.967 3.384 2.63 4.816l3.186-4.977 4.605 3.632c.83-1.07 1.316-2.383 1.316-3.842 0-2.18-1.083-3.707-2.763-4.842z" fill="url(#f)" transform="translate(0 -16)"/><path d="M15.474 7.58a5.474 5.474 0 1 1-10.948 0 5.474 5.474 0 1 1 10.948 0z" opacity=".8" color="#000" fill="none" stroke="#cfcfcf" stroke-width=".842" stroke-linecap="round" stroke-linejoin="round" overflow="visible"/><path d="M10.345 7.58a.345.345 0 1 1-.69 0 .345.345 0 1 1 .69 0z" color="#bebebe" fill="#cfcfcf" overflow="visible"/></svg>